<?xml version="1.0" standalone="no"?>
<!DOCTYPE svg PUBLIC "-//W3C//DTD SVG 20010904//EN"
 "http://www.w3.org/TR/2001/REC-SVG-20010904/DTD/svg10.dtd">
<svg version="1.0" xmlns="http://www.w3.org/2000/svg"
 width="260.000000pt" height="260.000000pt" viewBox="0 0 260.000000 260.000000"
 preserveAspectRatio="xMidYMid meet">
<metadata>
Created by potrace 1.11, written by Peter Selinger 2001-2013
</metadata>
<g transform="translate(0.000000,260.000000) scale(0.100000,-0.100000)"
fill="#000000" stroke="none">
<path d="M11 2591 c-9 -6 -10 -11 -2 -15 13 -8 31 1 31 15 0 11 -11 11 -29 0z"/>
<path d="M118 2588 c9 -9 15 -9 24 0 9 9 7 12 -12 12 -19 0 -21 -3 -12 -12z"/>
<path d="M166 2574 c5 -18 3 -25 -4 -20 -6 3 -12 0 -15 -6 -3 -10 -9 -10 -27
0 -17 11 -24 11 -30 2 -10 -17 -22 4 -14 24 5 12 2 15 -10 10 -9 -3 -13 -10
-10 -16 3 -5 -2 -15 -12 -23 -11 -7 -16 -17 -12 -21 4 -4 14 -1 22 5 10 9 16
9 21 1 4 -6 16 -8 28 -4 12 3 19 3 15 -1 -4 -4 -26 -9 -49 -11 -25 -2 -47 -11
-55 -21 -16 -21 -18 -33 -4 -33 6 0 6 -10 -1 -27 -5 -14 -7 -34 -3 -42 4 -9 8
-25 8 -36 1 -11 6 -20 13 -20 6 0 15 -3 19 -7 4 -5 -4 -8 -19 -8 l-25 0 -1
-1160 -1 -1160 1300 0 1301 0 -1 775 c-1 426 -5 775 -10 775 -4 0 -11 -6 -14
-12 -5 -10 -7 -10 -12 0 -3 6 -12 12 -19 12 -25 0 -27 20 -6 49 12 16 21 37
21 46 0 10 8 24 18 31 16 11 17 48 20 468 l3 456 -1192 0 c-801 0 -1197 -4
-1205 -11 -8 -7 -14 -7 -19 1 -13 20 -25 10 -19 -16z m144 -4 c0 -5 -4 -10
-10 -10 -5 0 -10 5 -10 10 0 6 5 10 10 10 6 0 10 -4 10 -10z m-40 -106 c0 -8
-4 -12 -10 -9 -5 3 -10 10 -10 16 0 5 5 9 10 9 6 0 10 -7 10 -16z m2144 -43
c23 -35 30 -59 37 -128 11 -106 0 -151 -45 -191 -35 -31 -203 -125 -246 -137
-28 -8 -192 -78 -285 -120 -70 -33 -79 -35 -255 -81 -174 -44 -269 -54 -294
-29 -14 14 -16 27 -11 65 8 56 -22 131 -78 198 -51 60 -50 92 5 147 48 47 79
55 233 54 45 0 119 5 166 10 142 18 588 177 664 238 43 34 74 27 109 -26z
m-2275 18 c-24 -15 -45 -11 -24 5 11 8 24 12 28 9 5 -3 3 -9 -4 -14z m-59 -19
c0 -5 -5 -10 -11 -10 -5 0 -7 5 -4 10 3 6 8 10 11 10 2 0 4 -4 4 -10z m310
-20 c12 -8 11 -10 -7 -10 -13 0 -23 5 -23 10 0 13 11 13 30 0z m1460 0 c0 -5
-7 -10 -16 -10 -8 0 -12 5 -9 10 3 6 10 10 16 10 5 0 9 -4 9 -10z m339 6 c-12
-10 -60 -16 -54 -6 3 5 18 10 32 10 15 0 24 -2 22 -4z m-2016 -12 c11 -11 -3
-24 -18 -18 -8 4 -12 10 -9 15 6 11 18 12 27 3z m-86 -46 c-6 -4 -15 -2 -19 5
-11 17 1 28 16 14 10 -8 11 -14 3 -19z m1569 10 c5 -8 2 -9 -9 -5 -9 3 -19 2
-22 -3 -4 -6 -1 -10 6 -10 10 0 10 -3 1 -12 -9 -9 -7 -14 6 -24 15 -12 15 -15
2 -24 -13 -9 -13 -10 0 -11 8 -1 21 -1 28 0 6 1 12 -5 12 -14 0 -9 -9 -15 -25
-15 -34 0 -69 67 -55 104 10 27 43 35 56 14z m18 -50 c3 -16 3 -28 -2 -28 -4
0 -9 14 -10 32 -3 37 2 35 12 -4z m-70 -55 c10 -24 -2 -29 -19 -7 -8 10 -15
22 -15 26 0 13 28 -3 34 -19z m-204 -13 c0 -5 -5 -10 -11 -10 -5 0 -7 5 -4 10
3 6 8 10 11 10 2 0 4 -4 4 -10z m-1310 -10 c0 -5 -4 -10 -10 -10 -5 0 -10 5
-10 10 0 6 5 10 10 10 6 0 10 -4 10 -10z m2420 -10 c0 -5 -4 -10 -10 -10 -5 0
-10 5 -10 10 0 6 5 10 10 10 6 0 10 -4 10 -10z m-2390 -20 c0 -5 -2 -10 -4
-10 -3 0 -8 5 -11 10 -3 6 -1 10 4 10 6 0 11 -4 11 -10z m1085 -59 c-8 -13
-35 -15 -35 -2 0 5 8 11 18 13 21 5 26 2 17 -11z m-1155 -1 c0 -5 -4 -10 -10
-10 -5 0 -10 5 -10 10 0 6 5 10 10 10 6 0 10 -4 10 -10z m2427 -9 c0 -11 -5
-18 -9 -15 -4 3 -5 11 -1 19 7 21 12 19 10 -4z m-1292 -31 c3 -5 -3 -10 -15
-10 -12 0 -18 5 -15 10 3 6 10 10 15 10 5 0 12 -4 15 -10z m1290 -10 c3 -5 1
-10 -4 -10 -6 0 -11 5 -11 10 0 6 2 10 4 10 3 0 8 -4 11 -10z m-2385 -10 c0
-5 -2 -10 -4 -10 -3 0 -8 5 -11 10 -3 6 -1 10 4 10 6 0 11 -4 11 -10z m2378
-24 c-2 -1 -12 -8 -22 -16 -17 -13 -18 -13 -11 -1 6 11 4 13 -9 8 -11 -4 -15
-3 -11 4 4 6 13 8 21 5 8 -3 14 -1 14 5 0 6 5 7 11 4 6 -4 9 -8 7 -9z m-1288
-16 c0 -5 -4 -10 -10 -10 -5 0 -10 5 -10 10 0 6 5 10 10 10 6 0 10 -4 10 -10z
m1222 -42 c-7 -7 -12 -8 -12 -2 0 6 3 14 7 17 3 4 9 5 12 2 2 -3 -1 -11 -7
-17z m-267 -106 c-3 -3 -11 0 -18 7 -9 10 -8 11 6 5 10 -3 15 -9 12 -12z
m-915 -37 c6 -19 8 -40 4 -46 -4 -8 -13 5 -20 32 -16 53 -16 49 -5 49 5 0 15
-16 21 -35z m950 5 c0 -5 -5 -10 -11 -10 -5 0 -7 5 -4 10 3 6 8 10 11 10 2 0
4 -4 4 -10z m-890 -14 c0 -2 -7 -6 -15 -10 -8 -3 -15 -1 -15 4 0 6 7 10 15 10
8 0 15 -2 15 -4z m662 -5 c-10 -6 -5 -11 17 -21 17 -7 31 -17 31 -22 0 -5 -6
-6 -12 -1 -7 4 -22 8 -33 8 -11 0 -19 6 -17 13 1 6 -4 12 -10 12 -9 0 -8 4 2
10 8 5 20 10 25 10 6 0 4 -4 -3 -9z m38 -1 c0 -5 -5 -10 -11 -10 -5 0 -7 5 -4
10 3 6 8 10 11 10 2 0 4 -4 4 -10z m-80 -41 c0 -5 -4 -9 -8 -9 -5 0 -9 7 -9
15 0 8 4 12 9 9 4 -3 8 -9 8 -15z m-56 -15 c3 -8 2 -12 -4 -9 -6 3 -10 10 -10
16 0 14 7 11 14 -7z m-94 -24 c0 -5 -2 -10 -4 -10 -3 0 -8 5 -11 10 -3 6 -1
10 4 10 6 0 11 -4 11 -10z m-455 -21 c4 -6 5 -12 2 -15 -7 -7 -37 7 -37 17 0
13 27 11 35 -2z m385 -56 c1 -38 2 -92 3 -121 1 -30 0 -55 -4 -57 -3 -3 -9 45
-13 105 -3 60 -9 116 -12 125 -4 10 0 15 10 15 13 0 16 -12 16 -67z m51 20
c27 -8 23 -23 -6 -23 -18 0 -26 7 -31 24 -3 14 -2 31 3 38 6 9 9 6 11 -11 2
-13 12 -26 23 -28z m192 33 c4 -10 1 -13 -9 -9 -7 3 -14 9 -14 14 0 14 17 10
23 -5z m-173 -6 c0 -5 -4 -10 -10 -10 -5 0 -10 5 -10 10 0 6 5 10 10 10 6 0
10 -4 10 -10z m75 -30 c-3 -5 -13 -10 -21 -10 -8 0 -14 5 -14 10 0 6 9 10 21
10 11 0 17 -4 14 -10z m-80 -40 c3 -5 -2 -11 -12 -11 -16 -1 -16 -2 -1 -6 14
-3 16 -15 13 -66 -5 -94 -23 -245 -30 -257 -3 -6 -8 -23 -11 -38 -3 -15 -11
-47 -18 -72 -8 -25 -22 -74 -32 -109 -12 -42 -26 -68 -41 -78 -13 -9 -26 -13
-29 -10 -3 3 3 32 15 64 11 32 29 92 41 133 12 41 30 102 40 135 21 65 22 80
22 228 -1 88 1 97 18 97 10 0 22 -4 25 -10z m795 -20 c8 -5 11 -10 5 -10 -5 0
-17 5 -25 10 -8 5 -10 10 -5 10 6 0 17 -5 25 -10z m-1566 -77 c76 -31 108 -64
110 -113 1 -33 2 -33 66 -14 22 6 23 5 12 -8 -10 -13 -8 -17 20 -23 24 -5 28
-9 15 -12 -18 -5 -18 -5 0 -19 17 -12 16 -13 -8 -14 -15 0 -32 6 -38 14 -6 8
-22 16 -34 20 l-22 5 21 -17 c41 -33 37 -60 -13 -108 -25 -24 -53 -44 -62 -44
-17 0 -71 -71 -71 -93 0 -7 -9 -18 -20 -25 -17 -10 -20 -10 -20 4 0 9 -5 12
-11 8 -7 -4 -20 4 -31 17 l-20 24 6 -30 c5 -26 4 -28 -7 -11 -6 10 -22 32 -35
50 -12 17 -25 39 -28 49 -8 22 -51 22 -76 0 -23 -20 -36 -10 -17 14 12 15 12
16 -1 8 -8 -4 -23 -15 -33 -23 -30 -26 -29 -6 2 27 37 40 26 39 -45 -3 -53
-31 -94 -37 -94 -14 0 6 11 8 24 4 16 -4 29 1 42 15 10 12 32 28 47 36 43 22
26 27 -28 8 -26 -8 -50 -14 -52 -11 -10 10 82 48 119 50 21 0 38 4 38 9 0 4
-3 7 -7 7 -11 0 -33 50 -33 75 0 42 30 83 86 116 31 19 61 39 67 46 16 15 50
9 131 -24z m856 -13 c0 -5 -7 -7 -15 -4 -8 4 -15 8 -15 10 0 2 7 4 15 4 8 0
15 -4 15 -10z m698 -27 c-10 -2 -26 -2 -35 0 -10 3 -2 5 17 5 19 0 27 -2 18
-5z m-2288 -44 c0 -11 9 -34 20 -49 14 -19 17 -31 10 -35 -13 -8 -12 -10 -33
37 -19 41 -22 68 -7 68 6 0 10 -9 10 -21z m130 7 c0 -2 -8 -10 -17 -17 -16
-13 -17 -12 -4 4 13 16 21 21 21 13z m-153 -57 c17 -24 32 -50 32 -57 1 -17
41 3 41 21 1 15 39 62 45 55 4 -4 -26 -91 -46 -130 -11 -22 -12 -61 -1 -54 5
3 17 -13 27 -36 10 -23 34 -59 53 -80 64 -71 216 -143 247 -118 8 7 28 9 48 5
24 -5 49 0 86 15 48 21 52 22 77 6 20 -14 28 -15 40 -5 11 9 14 8 14 -5 0 -9
5 -16 11 -16 6 0 8 9 4 20 -3 11 -2 20 4 20 5 0 12 -13 16 -30 4 -16 11 -30
17 -30 6 0 8 7 4 15 -8 23 10 18 27 -7 15 -23 15 -23 9 6 -3 19 -1 27 5 23 6
-4 16 0 23 8 7 9 29 15 50 15 30 0 44 -6 64 -31 14 -17 26 -35 26 -40 0 -10
50 -85 88 -134 24 -31 75 -48 117 -39 17 3 50 22 73 42 39 31 43 38 38 66 -6
29 -3 34 29 49 20 9 38 24 41 32 8 20 22 19 26 -2 3 -10 -7 -28 -21 -40 -21
-18 -23 -22 -8 -23 19 0 22 -22 6 -51 -6 -12 -17 -18 -25 -15 -9 3 -29 -11
-52 -36 -41 -46 -101 -77 -148 -78 -37 0 -94 18 -94 30 0 5 -18 30 -41 56 -22
26 -45 58 -50 71 -5 13 -13 22 -18 19 -5 -3 -12 5 -15 19 -4 14 -11 25 -17 25
-28 0 39 -120 87 -157 19 -14 34 -34 34 -44 0 -10 5 -21 10 -24 21 -13 40 -79
40 -139 0 -43 -7 -76 -24 -113 -30 -63 -106 -149 -117 -132 -5 9 -15 6 -35 -8
-76 -54 -165 -81 -105 -32 32 26 25 24 -59 -16 -76 -38 -124 -43 -55 -7 55 29
30 27 -39 -3 -63 -28 -78 -15 -26 23 46 35 36 44 -22 21 -29 -12 -60 -24 -68
-27 -8 -3 1 11 19 31 40 43 32 45 -58 17 -35 -11 -66 -18 -68 -16 -3 3 21 19
53 36 l59 31 -60 -5 c-68 -6 -59 6 20 25 53 13 135 46 135 56 0 3 -11 2 -25
-1 -20 -5 -25 -3 -25 12 0 40 23 81 61 111 39 32 39 33 35 88 -3 45 -9 60 -37
89 -35 36 -33 60 2 28 22 -19 22 -19 10 4 -6 12 -16 22 -22 22 -5 0 -9 6 -7
14 2 8 -6 22 -17 31 -19 16 -19 16 7 11 14 -3 34 -9 45 -12 49 -17 -28 24 -92
49 -84 32 -99 34 -65 6 l25 -20 -25 6 c-74 19 -157 49 -171 61 -13 11 -18 12
-21 3 -6 -17 -81 33 -115 77 -15 20 -47 59 -71 87 -23 28 -40 57 -38 64 3 6
-5 24 -17 39 -15 20 -22 45 -25 93 -3 50 -10 72 -26 90 -13 15 -16 22 -6 19 8
-2 29 -24 47 -49z m2247 36 c-4 -8 -10 -12 -15 -9 -14 8 -10 24 6 24 9 0 12
-6 9 -15z m-2274 -71 c0 -19 -20 -28 -21 -10 -3 29 -4 34 -11 42 -5 4 -8 12
-8 18 1 16 40 -33 40 -50z m480 19 c-1 -24 -2 -26 -11 -10 -5 9 -7 22 -4 27
10 17 15 11 15 -17z m997 -5 c-3 -8 -6 -5 -6 6 -1 11 2 17 5 13 3 -3 4 -12 1
-19z m-1292 2 c-3 -5 -12 -10 -18 -10 -7 0 -6 4 3 10 19 12 23 12 15 0z m2100
-80 c3 -5 1 -10 -4 -10 -6 0 -11 5 -11 10 0 6 2 10 4 10 3 0 8 -4 11 -10z
m-2271 -56 c3 -8 2 -14 -2 -14 -10 0 -32 22 -32 32 0 12 28 -2 34 -18z m-32
-36 c-7 -7 -12 -8 -12 -2 0 14 12 26 19 19 2 -3 -1 -11 -7 -17z m-72 -48 c0
-5 -4 -10 -10 -10 -5 0 -10 5 -10 10 0 6 5 10 10 10 6 0 10 -4 10 -10z m150
-16 c0 -2 -9 0 -20 6 -11 6 -20 13 -20 16 0 2 9 0 20 -6 11 -6 20 -13 20 -16z
m545 6 c3 -6 -1 -7 -9 -4 -18 7 -21 14 -7 14 6 0 13 -4 16 -10z m39 -36 c9 -8
16 -27 16 -41 0 -32 -10 -24 -26 22 -13 39 -12 42 10 19z m770 1 c-4 -8 -8
-15 -10 -15 -2 0 -4 7 -4 15 0 8 4 15 10 15 5 0 7 -7 4 -15z m-1169 -5 c3 -6
-1 -7 -9 -4 -18 7 -21 14 -7 14 6 0 13 -4 16 -10z m39 -26 c3 -8 2 -12 -4 -9
-6 3 -10 10 -10 16 0 14 7 11 14 -7z m1107 -37 c-8 -8 -11 -5 -11 9 0 27 14
41 18 19 2 -9 -1 -22 -7 -28z m-1316 13 c3 -6 -1 -7 -9 -4 -18 7 -21 14 -7 14
6 0 13 -4 16 -10z m70 -21 c11 -17 -1 -21 -15 -4 -8 9 -8 15 -2 15 6 0 14 -5
17 -11z m352 -5 c-3 -3 -12 -4 -19 -1 -8 3 -5 6 6 6 11 1 17 -2 13 -5z m-522
-24 c3 -5 1 -10 -4 -10 -6 0 -11 5 -11 10 0 6 2 10 4 10 3 0 8 -4 11 -10z
m1503 -31 c-4 -13 -84 -42 -101 -36 -15 5 61 46 86 47 10 0 17 -5 15 -11z
m-18 -44 c0 -8 -14 -17 -35 -21 -48 -9 -56 2 -14 20 43 19 49 19 49 1z m-210
-47 c0 -18 -2 -20 -9 -8 -6 8 -7 18 -5 22 9 14 14 9 14 -14z m154 4 c7 -11
-39 -120 -60 -143 -9 -10 -23 -19 -30 -19 -11 0 -11 7 1 39 7 21 18 47 24 57
6 11 15 31 21 47 9 26 33 36 44 19z m61 -2 c3 -5 -3 -10 -14 -10 -12 0 -21 5
-21 10 0 6 6 10 14 10 8 0 18 -4 21 -10z m-865 -151 c0 -5 -4 -9 -10 -9 -5 0
-10 7 -10 16 0 8 5 12 10 9 6 -3 10 -10 10 -16z m300 -422 c0 -7 14 -26 30
-42 17 -16 30 -36 30 -44 -1 -15 -67 -64 -115 -85 -18 -8 -16 -10 15 -16 45
-9 165 -64 175 -80 6 -10 3 -11 -11 -6 -69 29 -128 45 -186 51 -78 8 -84 18
-32 55 20 14 54 40 76 59 l39 34 -28 12 c-15 7 -34 20 -42 29 -12 14 -11 18 5
31 24 18 44 19 44 2z m-177 -64 c-5 -16 -7 -49 -6 -74 2 -28 -2 -51 -10 -57
-7 -6 -73 -17 -147 -26 -74 -8 -143 -18 -152 -21 -28 -11 -21 11 8 24 14 6 75
18 135 26 103 13 155 34 129 50 -18 11 -12 83 8 94 31 19 43 13 35 -16z m77
12 c0 -2 -13 -11 -30 -20 -31 -16 -43 -3 -12 14 18 11 42 14 42 6z m71 -48
c-10 -9 -11 -8 -5 6 3 10 9 15 12 12 3 -3 0 -11 -7 -18z m-91 -62 c-7 -8 -17
-15 -23 -15 -6 0 -2 7 9 15 25 19 30 19 14 0z"/>
<path d="M1764 2200 c-6 -6 -35 -14 -66 -18 l-56 -7 26 -57 c15 -32 33 -57 40
-58 16 0 15 13 -3 56 -13 31 -13 36 0 41 20 7 42 -12 49 -43 4 -14 12 -24 19
-21 12 4 15 36 6 67 -2 8 2 15 10 15 8 0 19 -15 23 -33 5 -19 14 -32 21 -29
16 5 20 38 8 70 -8 21 -17 27 -39 27 -15 0 -33 -5 -38 -10z"/>
<path d="M2200 2165 c-7 -8 -23 -15 -36 -15 -12 0 -26 -4 -29 -10 -3 -5 -19
-10 -36 -10 -16 0 -29 -3 -29 -7 1 -15 89 -103 103 -103 25 0 27 12 7 40 -24
33 -25 50 -5 50 14 0 25 -9 50 -45 11 -16 16 -17 26 -8 10 10 9 19 -9 42 -20
27 -20 41 0 41 5 0 14 -11 20 -25 11 -24 41 -34 51 -17 3 4 -6 24 -19 45 -19
29 -31 37 -53 37 -16 0 -34 -7 -41 -15z"/>
<path d="M1534 2140 c-29 -11 -40 -30 -24 -40 8 -5 19 -2 28 6 8 9 21 13 29
10 8 -3 17 -6 19 -6 2 0 4 -4 4 -9 0 -5 -11 -12 -25 -15 -32 -8 -51 -42 -34
-62 14 -18 67 -18 108 -1 27 12 30 15 17 26 -8 7 -17 25 -21 40 -3 15 -18 35
-34 44 -32 19 -37 19 -67 7z m74 -87 c5 -18 -28 -29 -38 -12 -5 7 -6 17 -3 22
7 12 35 5 41 -10z"/>
<path d="M1349 2125 c-54 -29 -40 -75 21 -75 35 0 63 -21 55 -42 -10 -26 -43
-32 -71 -13 -29 19 -33 18 -36 -15 -3 -20 3 -25 36 -33 42 -11 101 9 112 38
12 31 -5 63 -41 76 -40 15 -46 36 -13 41 13 2 24 11 26 21 3 13 -3 17 -30 17
-18 -1 -45 -7 -59 -15z"/>
<path d="M1952 2084 c-31 -22 -29 -48 3 -40 14 3 36 9 50 12 30 8 34 -12 5
-21 -29 -9 -38 -54 -15 -72 24 -17 44 -17 89 2 38 16 45 29 21 39 -8 3 -15 14
-15 24 0 11 -12 31 -26 46 -31 30 -77 35 -112 10z m108 -79 c0 -8 -9 -15 -20
-15 -13 0 -18 5 -14 15 4 8 12 15 20 15 8 0 14 -7 14 -15z"/>
<path d="M1735 2003 c-59 -17 -76 -30 -56 -42 8 -5 20 -7 28 -4 15 6 63 -33
63 -50 0 -5 -8 -16 -17 -23 -13 -9 -15 -16 -8 -23 8 -8 27 -5 65 8 58 21 76
48 28 43 -37 -4 -68 40 -49 70 19 31 2 37 -54 21z"/>
<path d="M814 1545 c-10 -8 -14 -14 -9 -14 6 0 19 6 29 14 11 8 15 15 10 15
-6 0 -19 -7 -30 -15z"/>
<path d="M836 1524 c-9 -8 -16 -23 -16 -32 0 -13 3 -12 16 6 8 12 24 22 35 22
10 0 19 5 19 10 0 16 -37 12 -54 -6z"/>
<path d="M960 1525 c27 -14 36 -13 25 4 -3 6 -16 11 -28 11 -21 -1 -21 -1 3
-15z"/>
<path d="M1005 1458 c9 -22 -10 -31 -28 -13 -20 19 -33 20 -17 0 6 -8 10 -18
7 -22 -3 -4 6 -8 19 -8 13 0 24 3 24 7 0 3 6 8 13 10 11 2 9 8 -5 23 -14 15
-18 16 -13 3z"/>
<path d="M917 1440 c7 -25 -22 -27 -49 -3 -10 9 -18 12 -18 7 1 -21 20 -37 49
-40 27 -3 31 -1 31 21 0 13 -4 26 -9 29 -5 4 -7 -3 -4 -14z"/>
<path d="M965 1380 c-4 -7 -3 -16 3 -22 13 -13 54 0 49 15 -5 16 -43 21 -52 7z
m25 -10 c0 -5 -4 -10 -10 -10 -5 0 -10 5 -10 10 0 6 5 10 10 10 6 0 10 -4 10
-10z"/>
<path d="M840 1339 c0 -8 -9 -22 -20 -32 -21 -18 -26 -37 -10 -37 6 0 10 7 10
16 0 13 6 12 37 -7 29 -18 54 -23 122 -26 56 -2 79 0 66 6 -11 5 -42 7 -70 4
-62 -5 -120 20 -120 54 0 12 -4 25 -8 29 -4 4 -7 1 -7 -7z"/>
<path d="M777 1311 c-4 -17 -3 -21 5 -13 5 5 8 16 6 23 -3 8 -7 3 -11 -10z"/>
<path d="M1100 685 c-33 -19 -10 -19 26 0 16 8 22 15 14 15 -8 -1 -26 -7 -40
-15z"/>
<path d="M1107 654 c-16 -9 -27 -17 -25 -20 5 -5 68 25 68 32 0 7 -15 3 -43
-12z"/>
<path d="M1113 610 c-29 -17 -53 -33 -53 -35 0 -7 99 46 106 56 8 13 4 12 -53
-21z"/>
<path d="M1110 575 c-30 -19 -50 -35 -45 -35 13 1 123 70 110 70 -5 0 -35 -16
-65 -35z"/>
<path d="M1113 544 c-34 -19 -66 -40 -69 -46 -9 -14 104 47 126 68 22 21 11
17 -57 -22z"/>
<path d="M1125 517 c-74 -43 -157 -104 -105 -77 38 20 150 91 150 96 0 6 -2 5
-45 -19z"/>
<path d="M1118 480 c-20 -11 -40 -24 -43 -30 -6 -9 81 33 94 45 10 11 -16 3
-51 -15z"/>
<path d="M1087 431 c-73 -42 -80 -57 -10 -22 34 17 64 35 68 41 10 15 -5 10
-58 -19z"/>
<path d="M1030 425 c-14 -8 -20 -14 -14 -15 5 0 19 7 30 15 24 18 16 19 -16 0z"/>
<path d="M1105 400 c-3 -5 -2 -10 4 -10 5 0 13 5 16 10 3 6 2 10 -4 10 -5 0
-13 -4 -16 -10z"/>
<path d="M2552 1594 c-14 -15 -8 -34 9 -34 16 0 41 29 34 40 -9 14 -28 12 -43
-6z"/>
</g>
</svg>
